<svg width="767" height="260" viewBox="0 0 767 260" fill="none" xmlns="http://www.w3.org/2000/svg">
<path d="M458.035 222H444.965C443.33 222 442 220.725 442 219.158V206.63C442 205.063 443.33 203.788 444.965 203.788H446.666V203.054C446.666 202.47 447.157 202 447.766 202C448.375 202 448.866 202.47 448.866 203.054V203.788H454.134V203.054C454.134 202.47 454.625 202 455.234 202C455.843 202 456.334 202.47 456.334 203.054V203.788H458.035C459.67 203.788 461 205.063 461 206.63V219.158C461 220.725 459.67 222 458.035 222ZM444.192 211.259V219.158C444.192 219.564 444.534 219.892 444.957 219.892H458.028C458.451 219.892 458.793 219.564 458.793 219.158V211.259H444.185H444.192ZM444.192 209.151H458.801V206.623C458.801 206.217 458.459 205.889 458.035 205.889H456.334V206.623C456.334 207.207 455.843 207.677 455.234 207.677C454.625 207.677 454.134 207.207 454.134 206.623V205.889H448.866V206.623C448.866 207.207 448.375 207.677 447.766 207.677C447.157 207.677 446.666 207.207 446.666 206.623V205.889H444.965C444.541 205.889 444.199 206.217 444.199 206.623V209.151H444.192Z" fill="#4D4D4D"/>
<path d="M216.66 204.68H219.04V204.76L213.72 210.9L219.4 218.92V219H217.14L212.48 212.32L210.28 214.86V219H208.44V204.68H210.28V212.06H210.36L216.66 204.68ZM218.811 214.1C218.811 212.593 219.284 211.347 220.231 210.36C221.191 209.373 222.397 208.88 223.851 208.88C225.304 208.88 226.504 209.373 227.451 210.36C228.411 211.347 228.891 212.593 228.891 214.1C228.891 215.62 228.411 216.867 227.451 217.84C226.504 218.827 225.304 219.32 223.851 219.32C222.397 219.32 221.191 218.827 220.231 217.84C219.284 216.853 218.811 215.607 218.811 214.1ZM220.651 214.1C220.651 215.153 220.957 216.007 221.571 216.66C222.184 217.313 222.944 217.64 223.851 217.64C224.757 217.64 225.517 217.313 226.131 216.66C226.744 216.007 227.051 215.153 227.051 214.1C227.051 213.06 226.744 212.213 226.131 211.56C225.504 210.893 224.744 210.56 223.851 210.56C222.957 210.56 222.197 210.893 221.571 211.56C220.957 212.213 220.651 213.06 220.651 214.1ZM234.242 219.32C232.789 219.32 231.582 218.827 230.622 217.84C229.676 216.827 229.202 215.58 229.202 214.1C229.202 212.593 229.676 211.347 230.622 210.36C231.582 209.373 232.789 208.88 234.242 208.88C235.242 208.88 236.116 209.133 236.862 209.64C237.609 210.133 238.169 210.82 238.542 211.7L236.862 212.4C236.342 211.173 235.429 210.56 234.122 210.56C233.282 210.56 232.556 210.9 231.942 211.58C231.342 212.26 231.042 213.1 231.042 214.1C231.042 215.1 231.342 215.94 231.942 216.62C232.556 217.3 233.282 217.64 234.122 217.64C235.469 217.64 236.416 217.027 236.962 215.8L238.602 216.5C238.242 217.38 237.676 218.073 236.902 218.58C236.142 219.073 235.256 219.32 234.242 219.32ZM239.411 204.68H241.251V209.2L241.171 210.56H241.251C241.531 210.08 241.958 209.68 242.531 209.36C243.118 209.04 243.725 208.88 244.351 208.88C245.551 208.88 246.471 209.227 247.111 209.92C247.765 210.6 248.091 211.573 248.091 212.84V219H246.251V213.2C246.251 211.44 245.471 210.56 243.911 210.56C243.165 210.56 242.531 210.873 242.011 211.5C241.505 212.113 241.251 212.833 241.251 213.66V219H239.411V204.68ZM251.831 205.82C251.831 206.18 251.705 206.487 251.451 206.74C251.198 206.993 250.891 207.12 250.531 207.12C250.171 207.12 249.865 206.993 249.611 206.74C249.358 206.487 249.231 206.18 249.231 205.82C249.231 205.46 249.358 205.153 249.611 204.9C249.865 204.647 250.171 204.52 250.531 204.52C250.891 204.52 251.198 204.647 251.451 204.9C251.705 205.153 251.831 205.46 251.831 205.82ZM251.451 209.2V219H249.611V209.2H251.451ZM258.8 219H256.96V204.68H258.8L263.78 213.4H263.86L268.84 204.68H270.68V219H268.84V210.5L268.92 208.1H268.84L264.36 215.96H263.28L258.8 208.1H258.72L258.8 210.5V219ZM273.489 216C273.489 216.48 273.689 216.88 274.089 217.2C274.502 217.52 274.982 217.68 275.529 217.68C276.302 217.68 276.989 217.393 277.589 216.82C278.202 216.247 278.509 215.573 278.509 214.8C277.936 214.347 277.136 214.12 276.109 214.12C275.362 214.12 274.736 214.3 274.229 214.66C273.736 215.02 273.489 215.467 273.489 216ZM275.869 208.88C277.229 208.88 278.302 209.247 279.089 209.98C279.876 210.7 280.269 211.693 280.269 212.96V219H278.509V217.64H278.429C277.669 218.76 276.656 219.32 275.389 219.32C274.309 219.32 273.402 219 272.669 218.36C271.949 217.72 271.589 216.92 271.589 215.96C271.589 214.947 271.969 214.14 272.729 213.54C273.502 212.94 274.529 212.64 275.809 212.64C276.902 212.64 277.802 212.84 278.509 213.24V212.82C278.509 212.18 278.256 211.64 277.749 211.2C277.242 210.747 276.649 210.52 275.969 210.52C274.942 210.52 274.129 210.953 273.529 211.82L271.909 210.8C272.802 209.52 274.122 208.88 275.869 208.88ZM283.384 219H281.544V209.2H283.304V210.8H283.384C283.571 210.28 283.951 209.84 284.524 209.48C285.111 209.107 285.684 208.92 286.244 208.92C286.778 208.92 287.231 209 287.604 209.16L287.044 210.94C286.818 210.847 286.458 210.8 285.964 210.8C285.271 210.8 284.664 211.08 284.144 211.64C283.638 212.2 283.384 212.853 283.384 213.6V219ZM289.85 219H288.01V209.2H289.77V210.8H289.85C290.037 210.28 290.417 209.84 290.99 209.48C291.577 209.107 292.15 208.92 292.71 208.92C293.243 208.92 293.697 209 294.07 209.16L293.51 210.94C293.283 210.847 292.923 210.8 292.43 210.8C291.737 210.8 291.13 211.08 290.61 211.64C290.103 212.2 289.85 212.853 289.85 213.6V219ZM296.855 205.82C296.855 206.18 296.729 206.487 296.475 206.74C296.222 206.993 295.915 207.12 295.555 207.12C295.195 207.12 294.889 206.993 294.635 206.74C294.382 206.487 294.255 206.18 294.255 205.82C294.255 205.46 294.382 205.153 294.635 204.9C294.889 204.647 295.195 204.52 295.555 204.52C295.915 204.52 296.222 204.647 296.475 204.9C296.729 205.153 296.855 205.46 296.855 205.82ZM296.475 209.2V219H294.635V209.2H296.475ZM297.412 214.1C297.412 212.593 297.886 211.347 298.832 210.36C299.792 209.373 300.999 208.88 302.452 208.88C303.906 208.88 305.106 209.373 306.052 210.36C307.012 211.347 307.492 212.593 307.492 214.1C307.492 215.62 307.012 216.867 306.052 217.84C305.106 218.827 303.906 219.32 302.452 219.32C300.999 219.32 299.792 218.827 298.832 217.84C297.886 216.853 297.412 215.607 297.412 214.1ZM299.252 214.1C299.252 215.153 299.559 216.007 300.172 216.66C300.786 217.313 301.546 217.64 302.452 217.64C303.359 217.64 304.119 217.313 304.732 216.66C305.346 216.007 305.652 215.153 305.652 214.1C305.652 213.06 305.346 212.213 304.732 211.56C304.106 210.893 303.346 210.56 302.452 210.56C301.559 210.56 300.799 210.893 300.172 211.56C299.559 212.213 299.252 213.06 299.252 214.1ZM318.351 219.16C317.551 219.16 316.884 218.913 316.351 218.42C315.831 217.927 315.564 217.24 315.551 216.36V210.88H310.991V215.82C310.991 216.393 311.104 216.807 311.331 217.06C311.571 217.313 311.851 217.44 312.171 217.44C312.477 217.44 312.771 217.38 313.051 217.26L313.631 218.9C313.151 219.073 312.591 219.16 311.951 219.16C311.151 219.16 310.484 218.913 309.951 218.42C309.431 217.927 309.164 217.24 309.151 216.36V210.88H307.431V209.2H309.151V206.2H310.991V209.2H315.551V206.2H317.391V209.2H319.791V210.88H317.391V215.76C317.391 216.413 317.517 216.86 317.771 217.1C318.024 217.327 318.311 217.44 318.631 217.44C318.777 217.44 318.917 217.427 319.051 217.4C319.197 217.36 319.331 217.313 319.451 217.26L320.031 218.9C319.551 219.073 318.991 219.16 318.351 219.16ZM326.502 219H324.662V204.68H326.502V210.82H333.662V204.68H335.502V219H333.662V212.54H326.502V219ZM336.693 214.1C336.693 212.593 337.166 211.347 338.113 210.36C339.073 209.373 340.279 208.88 341.733 208.88C343.186 208.88 344.386 209.373 345.333 210.36C346.293 211.347 346.773 212.593 346.773 214.1C346.773 215.62 346.293 216.867 345.333 217.84C344.386 218.827 343.186 219.32 341.733 219.32C340.279 219.32 339.073 218.827 338.113 217.84C337.166 216.853 336.693 215.607 336.693 214.1ZM338.533 214.1C338.533 215.153 338.839 216.007 339.453 216.66C340.066 217.313 340.826 217.64 341.733 217.64C342.639 217.64 343.399 217.313 344.013 216.66C344.626 216.007 344.933 215.153 344.933 214.1C344.933 213.06 344.626 212.213 344.013 211.56C343.386 210.893 342.626 210.56 341.733 210.56C340.839 210.56 340.079 210.893 339.453 211.56C338.839 212.213 338.533 213.06 338.533 214.1ZM351.231 219.16C350.431 219.16 349.765 218.913 349.231 218.42C348.711 217.927 348.445 217.24 348.431 216.36V210.88H346.711V209.2H348.431V206.2H350.271V209.2H352.671V210.88H350.271V215.76C350.271 216.413 350.398 216.86 350.651 217.1C350.905 217.327 351.191 217.44 351.511 217.44C351.658 217.44 351.798 217.427 351.931 217.4C352.078 217.36 352.211 217.313 352.331 217.26L352.911 218.9C352.431 219.073 351.871 219.16 351.231 219.16ZM357.924 219.32C356.484 219.32 355.297 218.827 354.364 217.84C353.431 216.853 352.964 215.607 352.964 214.1C352.964 212.607 353.417 211.367 354.324 210.38C355.231 209.38 356.391 208.88 357.804 208.88C359.257 208.88 360.411 209.353 361.264 210.3C362.131 211.233 362.564 212.547 362.564 214.24L362.544 214.44H354.844C354.871 215.4 355.191 216.173 355.804 216.76C356.417 217.347 357.151 217.64 358.004 217.64C359.177 217.64 360.097 217.053 360.764 215.88L362.404 216.68C361.964 217.507 361.351 218.153 360.564 218.62C359.791 219.087 358.911 219.32 357.924 219.32ZM354.984 212.92H360.604C360.551 212.24 360.271 211.68 359.764 211.24C359.271 210.787 358.604 210.56 357.764 210.56C357.071 210.56 356.471 210.773 355.964 211.2C355.471 211.627 355.144 212.2 354.984 212.92ZM365.287 204.68V219H363.447V204.68H365.287Z" fill="#4D4D4D"/>
<path d="M483.91 211.84C483.91 213.96 483.204 215.733 481.79 217.16C480.364 218.6 478.617 219.32 476.55 219.32C474.47 219.32 472.724 218.6 471.31 217.16C469.897 215.733 469.19 213.96 469.19 211.84C469.19 209.72 469.897 207.947 471.31 206.52C472.724 205.08 474.47 204.36 476.55 204.36C478.63 204.36 480.377 205.087 481.79 206.54C483.204 207.967 483.91 209.733 483.91 211.84ZM471.07 211.84C471.07 213.493 471.59 214.86 472.63 215.94C473.684 217.02 474.99 217.56 476.55 217.56C478.11 217.56 479.41 217.02 480.45 215.94C481.504 214.873 482.03 213.507 482.03 211.84C482.03 210.173 481.504 208.807 480.45 207.74C479.41 206.66 478.11 206.12 476.55 206.12C474.99 206.12 473.684 206.66 472.63 207.74C471.59 208.82 471.07 210.187 471.07 211.84ZM489.442 219.32C487.988 219.32 486.782 218.827 485.822 217.84C484.875 216.827 484.402 215.58 484.402 214.1C484.402 212.593 484.875 211.347 485.822 210.36C486.782 209.373 487.988 208.88 489.442 208.88C490.442 208.88 491.315 209.133 492.062 209.64C492.808 210.133 493.368 210.82 493.742 211.7L492.062 212.4C491.542 211.173 490.628 210.56 489.322 210.56C488.482 210.56 487.755 210.9 487.142 211.58C486.542 212.26 486.242 213.1 486.242 214.1C486.242 215.1 486.542 215.94 487.142 216.62C487.755 217.3 488.482 217.64 489.322 217.64C490.668 217.64 491.615 217.027 492.162 215.8L493.802 216.5C493.442 217.38 492.875 218.073 492.102 218.58C491.342 219.073 490.455 219.32 489.442 219.32ZM498.393 219.16C497.593 219.16 496.926 218.913 496.393 218.42C495.873 217.927 495.606 217.24 495.593 216.36V210.88H493.873V209.2H495.593V206.2H497.433V209.2H499.833V210.88H497.433V215.76C497.433 216.413 497.56 216.86 497.813 217.1C498.066 217.327 498.353 217.44 498.673 217.44C498.82 217.44 498.96 217.427 499.093 217.4C499.24 217.36 499.373 217.313 499.493 217.26L500.073 218.9C499.593 219.073 499.033 219.16 498.393 219.16ZM500.126 214.1C500.126 212.593 500.599 211.347 501.546 210.36C502.506 209.373 503.712 208.88 505.166 208.88C506.619 208.88 507.819 209.373 508.766 210.36C509.726 211.347 510.206 212.593 510.206 214.1C510.206 215.62 509.726 216.867 508.766 217.84C507.819 218.827 506.619 219.32 505.166 219.32C503.712 219.32 502.506 218.827 501.546 217.84C500.599 216.853 500.126 215.607 500.126 214.1ZM501.966 214.1C501.966 215.153 502.272 216.007 502.886 216.66C503.499 217.313 504.259 217.64 505.166 217.64C506.072 217.64 506.832 217.313 507.446 216.66C508.059 216.007 508.366 215.153 508.366 214.1C508.366 213.06 508.059 212.213 507.446 211.56C506.819 210.893 506.059 210.56 505.166 210.56C504.272 210.56 503.512 210.893 502.886 211.56C502.272 212.213 501.966 213.06 501.966 214.1ZM516.16 219.32C515.44 219.32 514.78 219.167 514.18 218.86C513.593 218.553 513.14 218.147 512.82 217.64H512.74V219H510.98V204.68H512.82V209.2L512.74 210.56H512.82C513.14 210.053 513.593 209.647 514.18 209.34C514.78 209.033 515.44 208.88 516.16 208.88C517.453 208.88 518.546 209.387 519.44 210.4C520.36 211.427 520.82 212.66 520.82 214.1C520.82 215.553 520.36 216.787 519.44 217.8C518.546 218.813 517.453 219.32 516.16 219.32ZM515.86 217.64C516.74 217.64 517.48 217.307 518.08 216.64C518.68 215.987 518.98 215.14 518.98 214.1C518.98 213.073 518.68 212.227 518.08 211.56C517.48 210.893 516.74 210.56 515.86 210.56C514.966 210.56 514.22 210.893 513.62 211.56C513.033 212.227 512.74 213.073 512.74 214.1C512.74 215.14 513.033 215.993 513.62 216.66C514.22 217.313 514.966 217.64 515.86 217.64ZM526.103 219.32C524.663 219.32 523.476 218.827 522.543 217.84C521.61 216.853 521.143 215.607 521.143 214.1C521.143 212.607 521.596 211.367 522.503 210.38C523.41 209.38 524.57 208.88 525.983 208.88C527.436 208.88 528.59 209.353 529.443 210.3C530.31 211.233 530.743 212.547 530.743 214.24L530.723 214.44H523.023C523.05 215.4 523.37 216.173 523.983 216.76C524.596 217.347 525.33 217.64 526.183 217.64C527.356 217.64 528.276 217.053 528.943 215.88L530.583 216.68C530.143 217.507 529.53 218.153 528.743 218.62C527.97 219.087 527.09 219.32 526.103 219.32ZM523.163 212.92H528.783C528.73 212.24 528.45 211.68 527.943 211.24C527.45 210.787 526.783 210.56 525.943 210.56C525.25 210.56 524.65 210.773 524.143 211.2C523.65 211.627 523.323 212.2 523.163 212.92ZM533.466 219H531.626V209.2H533.386V210.8H533.466C533.652 210.28 534.032 209.84 534.606 209.48C535.192 209.107 535.766 208.92 536.326 208.92C536.859 208.92 537.312 209 537.686 209.16L537.126 210.94C536.899 210.847 536.539 210.8 536.046 210.8C535.352 210.8 534.746 211.08 534.226 211.64C533.719 212.2 533.466 212.853 533.466 213.6V219ZM546.466 210.32C547.572 210.32 548.559 210.76 549.426 211.64C550.306 212.507 550.746 213.54 550.746 214.74C550.746 215.967 550.279 217.04 549.346 217.96C548.399 218.867 547.306 219.32 546.066 219.32C544.746 219.32 543.632 218.867 542.726 217.96C541.819 217.053 541.366 215.98 541.366 214.74C541.366 213.633 541.812 212.373 542.706 210.96L546.686 205L548.166 206.02L544.786 210.7L544.826 210.74C545.239 210.46 545.786 210.32 546.466 210.32ZM543.226 214.76C543.226 215.547 543.499 216.213 544.046 216.76C544.592 217.293 545.266 217.56 546.066 217.56C546.866 217.56 547.532 217.293 548.066 216.76C548.612 216.213 548.886 215.547 548.886 214.76C548.886 213.987 548.606 213.327 548.046 212.78C547.499 212.233 546.839 211.96 546.066 211.96C545.306 211.96 544.639 212.233 544.066 212.78C543.506 213.327 543.226 213.987 543.226 214.76ZM555.742 219.16C554.942 219.16 554.276 218.913 553.742 218.42C553.222 217.927 552.956 217.24 552.942 216.36V210.88H551.222V209.2H552.942V206.2H554.782V209.2H557.182V210.88H554.782V215.76C554.782 216.413 554.909 216.86 555.162 217.1C555.416 217.327 555.702 217.44 556.022 217.44C556.169 217.44 556.309 217.427 556.442 217.4C556.589 217.36 556.722 217.313 556.842 217.26L557.422 218.9C556.942 219.073 556.382 219.16 555.742 219.16ZM558.23 204.68H560.07V209.2L559.99 210.56H560.07C560.35 210.08 560.777 209.68 561.35 209.36C561.937 209.04 562.544 208.88 563.17 208.88C564.37 208.88 565.29 209.227 565.93 209.92C566.584 210.6 566.91 211.573 566.91 212.84V219H565.07V213.2C565.07 211.44 564.29 210.56 562.73 210.56C561.984 210.56 561.35 210.873 560.83 211.5C560.324 212.113 560.07 212.833 560.07 213.66V219H558.23V204.68ZM580.265 217.24V219H571.545V217.16L575.085 213.58C576.271 212.367 577.091 211.46 577.545 210.86C577.998 210.247 578.225 209.607 578.225 208.94C578.225 208.34 577.991 207.827 577.525 207.4C577.058 206.973 576.458 206.76 575.725 206.76C575.098 206.76 574.558 206.947 574.105 207.32C573.651 207.693 573.358 208.147 573.225 208.68L571.545 208C571.811 207.16 572.325 206.453 573.085 205.88C573.845 205.293 574.738 205 575.765 205C577.005 205 578.038 205.38 578.865 206.14C579.691 206.9 580.105 207.833 580.105 208.94C580.105 210.26 579.378 211.687 577.925 213.22L573.925 217.24H580.265ZM581.215 212.16C581.215 210.08 581.729 208.367 582.755 207.02C583.782 205.673 585.102 205 586.715 205C588.329 205 589.649 205.68 590.675 207.04C591.702 208.387 592.215 210.093 592.215 212.16C592.215 214.213 591.702 215.927 590.675 217.3C589.649 218.647 588.329 219.32 586.715 219.32C585.102 219.32 583.782 218.647 582.755 217.3C581.729 215.927 581.215 214.213 581.215 212.16ZM590.335 212.16C590.335 210.587 590.002 209.293 589.335 208.28C588.682 207.267 587.809 206.76 586.715 206.76C585.622 206.76 584.749 207.267 584.095 208.28C583.429 209.293 583.095 210.587 583.095 212.16C583.095 213.733 583.429 215.033 584.095 216.06C584.749 217.06 585.622 217.56 586.715 217.56C587.809 217.56 588.682 217.053 589.335 216.04C590.002 215.013 590.335 213.72 590.335 212.16ZM601.614 217.24V219H592.894V217.16L596.434 213.58C597.621 212.367 598.441 211.46 598.894 210.86C599.347 210.247 599.574 209.607 599.574 208.94C599.574 208.34 599.341 207.827 598.874 207.4C598.407 206.973 597.807 206.76 597.074 206.76C596.447 206.76 595.907 206.947 595.454 207.32C595.001 207.693 594.707 208.147 594.574 208.68L592.894 208C593.161 207.16 593.674 206.453 594.434 205.88C595.194 205.293 596.087 205 597.114 205C598.354 205 599.387 205.38 600.214 206.14C601.041 206.9 601.454 207.833 601.454 208.94C601.454 210.26 600.727 211.687 599.274 213.22L595.274 217.24H601.614ZM610.825 216.12V219H608.985V216.12H602.485V214.72L608.825 205.32H610.825V214.4H612.585V216.12H610.825ZM604.565 214.4H608.985V208.02H608.905L604.565 214.4Z" fill="#4D4D4D"/>
<path d="M192 219.806C194.057 218.19 195.605 216.64 196.652 215.144C197.699 213.654 198.225 212.259 198.225 210.971C198.225 209.838 198.011 208.872 197.588 208.085C197.166 207.298 196.64 206.655 196.015 206.154C195.391 205.653 194.718 205.295 193.989 205.069C193.261 204.842 192.6 204.735 192 204.735C191.4 204.735 190.733 204.848 190.011 205.069C189.282 205.295 188.609 205.653 187.985 206.154C187.36 206.655 186.84 207.292 186.412 208.085C185.989 208.872 185.775 209.838 185.775 210.971C185.775 212.259 186.301 213.654 187.348 215.144C188.395 216.634 189.943 218.19 192 219.806ZM192 222C189.295 220.021 187.281 218.119 185.971 216.307C184.655 214.494 184 212.718 184 210.977C184 209.665 184.245 208.509 184.728 207.519C185.212 206.529 185.842 205.695 186.608 205.021C187.373 204.347 188.236 203.841 189.184 203.507C190.133 203.173 191.07 203 192 203C192.93 203 193.867 203.167 194.816 203.507C195.764 203.841 196.621 204.347 197.392 205.021C198.164 205.695 198.788 206.529 199.272 207.519C199.755 208.509 200 209.665 200 210.983C200 212.724 199.345 214.5 198.029 216.313C196.713 218.119 194.705 220.015 192 222ZM192 212.819C192.569 212.819 193.059 212.622 193.463 212.223C193.867 211.829 194.069 211.352 194.069 210.792C194.069 210.232 193.867 209.761 193.457 209.367C193.053 208.974 192.563 208.777 191.988 208.777C191.412 208.777 190.929 208.974 190.525 209.373C190.121 209.767 189.919 210.243 189.919 210.804C189.919 211.364 190.121 211.835 190.531 212.229C190.935 212.622 191.425 212.819 192 212.819Z" fill="#4D4D4D"/>
<path d="M264.34 95.6901C263.07 94.9601 262.06 93.9601 261.33 92.6801C260.59 91.4001 260.23 89.9901 260.23 88.4401C260.23 86.8901 260.6 85.4801 261.33 84.2001C262.07 82.9201 263.07 81.9101 264.34 81.1901C265.61 80.4601 267 80.1001 268.5 80.1001C269.68 80.1001 270.78 80.3101 271.82 80.7201C272.85 81.1401 273.71 81.7201 274.38 82.4801L273.02 83.8401C272.51 83.2201 271.86 82.7301 271.07 82.4001C270.27 82.0701 269.42 81.9001 268.51 81.9001C267.39 81.9001 266.35 82.1701 265.37 82.7101C264.4 83.2501 263.61 84.0201 263.03 85.0101C262.44 86.0001 262.15 87.1401 262.15 88.4401C262.15 89.7401 262.44 90.8801 263.03 91.8701C263.62 92.8601 264.4 93.6301 265.37 94.1701C266.34 94.7101 267.39 94.9801 268.51 94.9801C269.63 94.9801 270.48 94.8101 271.2 94.4801C271.92 94.1501 272.55 93.7001 273.09 93.1501C273.48 92.7301 273.79 92.2301 274.03 91.6301C274.27 91.0401 274.41 90.3901 274.45 89.6901H268.56V87.9301H276.24C276.31 88.3501 276.35 88.7301 276.35 89.0901C276.35 90.0701 276.19 91.0301 275.88 91.9601C275.57 92.8901 275.07 93.7101 274.38 94.4001C272.88 95.9901 270.92 96.7901 268.51 96.7901C267.01 96.7901 265.62 96.4201 264.35 95.7001L264.34 95.6901Z" fill="#636D74"/>
<path d="M280.51 96.0198C279.65 95.5098 278.97 94.7998 278.49 93.8998C278.01 92.9998 277.76 91.9998 277.76 90.8998C277.76 89.7998 278 88.7998 278.49 87.8998C278.98 86.9998 279.65 86.2898 280.51 85.7798C281.37 85.2698 282.35 85.0098 283.43 85.0098C284.51 85.0098 285.49 85.2698 286.37 85.7798C287.24 86.2898 287.92 86.9998 288.4 87.8998C288.88 88.7998 289.13 89.7998 289.13 90.8998C289.13 91.9998 288.89 92.9998 288.4 93.8998C287.92 94.7998 287.24 95.5098 286.37 96.0198C285.5 96.5298 284.52 96.7898 283.43 96.7898C282.34 96.7898 281.37 96.5298 280.51 96.0198ZM285.31 94.5598C285.89 94.2198 286.36 93.7298 286.71 93.0998C287.06 92.4698 287.23 91.7298 287.23 90.8998C287.23 90.0698 287.06 89.3298 286.71 88.6998C286.36 88.0698 285.89 87.5798 285.31 87.2398C284.73 86.8998 284.1 86.7298 283.43 86.7298C282.76 86.7298 282.16 86.8998 281.58 87.2398C281 87.5798 280.54 88.0698 280.19 88.6998C279.84 89.3298 279.66 90.0698 279.66 90.8998C279.66 91.7298 279.83 92.4698 280.19 93.0998C280.54 93.7298 281 94.2198 281.58 94.5598C282.16 94.8998 282.78 95.0698 283.43 95.0698C284.08 95.0698 284.72 94.8998 285.31 94.5598Z" fill="#636D74"/>
<path d="M293.17 96.0198C292.31 95.5098 291.63 94.7998 291.15 93.8998C290.67 92.9998 290.42 91.9998 290.42 90.8998C290.42 89.7998 290.66 88.7998 291.15 87.8998C291.64 86.9998 292.31 86.2898 293.17 85.7798C294.03 85.2698 295.01 85.0098 296.09 85.0098C297.17 85.0098 298.15 85.2698 299.03 85.7798C299.9 86.2898 300.58 86.9998 301.06 87.8998C301.54 88.7998 301.79 89.7998 301.79 90.8998C301.79 91.9998 301.55 92.9998 301.06 93.8998C300.58 94.7998 299.9 95.5098 299.03 96.0198C298.16 96.5298 297.18 96.7898 296.09 96.7898C295 96.7898 294.03 96.5298 293.17 96.0198ZM297.97 94.5598C298.55 94.2198 299.02 93.7298 299.37 93.0998C299.72 92.4698 299.89 91.7298 299.89 90.8998C299.89 90.0698 299.72 89.3298 299.37 88.6998C299.02 88.0698 298.55 87.5798 297.97 87.2398C297.39 86.8998 296.76 86.7298 296.09 86.7298C295.42 86.7298 294.82 86.8998 294.24 87.2398C293.66 87.5798 293.2 88.0698 292.85 88.6998C292.5 89.3298 292.32 90.0698 292.32 90.8998C292.32 91.7298 292.49 92.4698 292.85 93.0998C293.2 93.7298 293.66 94.2198 294.24 94.5598C294.82 94.8998 295.44 95.0698 296.09 95.0698C296.74 95.0698 297.38 94.8998 297.97 94.5598Z" fill="#636D74"/>
<path d="M305.29 100.65C304.44 100.01 303.87 99.27 303.57 98.42L305.33 97.68C305.55 98.34 305.95 98.87 306.52 99.28C307.09 99.69 307.77 99.89 308.56 99.89C309.74 99.89 310.64 99.55 311.27 98.87C311.9 98.19 312.22 97.23 312.22 96.01V94.83H312.13C311.77 95.4 311.26 95.86 310.59 96.24C309.92 96.62 309.16 96.8 308.31 96.8C307.37 96.8 306.5 96.55 305.7 96.04C304.9 95.53 304.26 94.83 303.78 93.93C303.3 93.03 303.07 92.02 303.07 90.9C303.07 89.78 303.31 88.77 303.78 87.87C304.26 86.97 304.9 86.27 305.7 85.76C306.5 85.25 307.37 85 308.31 85C309.16 85 309.92 85.19 310.59 85.56C311.26 85.93 311.77 86.4 312.13 86.97H312.22V85.36H314.03V95.99C314.03 97.21 313.79 98.24 313.32 99.09C312.84 99.94 312.19 100.57 311.37 100.99C310.54 101.41 309.61 101.61 308.57 101.61C307.23 101.61 306.14 101.29 305.29 100.65ZM310.42 94.56C310.97 94.22 311.41 93.74 311.75 93.11C312.08 92.48 312.25 91.74 312.25 90.89C312.25 90.04 312.08 89.29 311.75 88.66C311.42 88.02 310.97 87.54 310.42 87.21C309.87 86.88 309.27 86.72 308.61 86.72C307.95 86.72 307.35 86.89 306.8 87.22C306.25 87.55 305.81 88.04 305.47 88.67C305.14 89.3 304.97 90.04 304.97 90.89C304.97 91.74 305.14 92.48 305.47 93.11C305.8 93.74 306.25 94.22 306.8 94.56C307.35 94.9 307.95 95.06 308.61 95.06C309.27 95.06 309.87 94.89 310.42 94.56Z" fill="#636D74"/>
<path d="M316.32 80.4399H318.22V96.42H316.32V80.4399Z" fill="#636D74"/>
<path d="M322.72 96.03C321.88 95.52 321.22 94.82 320.74 93.93C320.26 93.04 320.03 92.02 320.03 90.89C320.03 89.82 320.25 88.83 320.7 87.93C321.15 87.03 321.78 86.31 322.61 85.79C323.44 85.26 324.38 85 325.46 85C326.54 85 327.47 85.24 328.28 85.72C329.09 86.2 329.71 86.89 330.14 87.76C330.57 88.64 330.79 89.65 330.79 90.8C330.79 91.01 330.78 91.16 330.75 91.25H321.95C321.98 92.08 322.18 92.79 322.55 93.36C322.92 93.93 323.39 94.36 323.95 94.64C324.51 94.92 325.08 95.06 325.68 95.06C327.08 95.06 328.16 94.38 328.92 93.01L330.59 93.81C330.11 94.7 329.46 95.42 328.61 95.96C327.77 96.5 326.76 96.78 325.58 96.78C324.51 96.78 323.55 96.53 322.71 96.02L322.72 96.03ZM328.78 89.67C328.75 89.22 328.62 88.78 328.4 88.33C328.18 87.88 327.82 87.5 327.32 87.19C326.82 86.88 326.19 86.72 325.41 86.72C324.58 86.72 323.85 86.99 323.24 87.52C322.63 88.06 322.24 88.77 322.08 89.66H328.78V89.67Z" fill="#636D74"/>
<path d="M338.04 80.4399H342.88C344.52 80.4399 345.95 80.7799 347.17 81.4599C348.39 82.1399 349.33 83.0799 349.98 84.2799C350.63 85.4799 350.96 86.8699 350.96 88.4299C350.96 89.9899 350.63 91.3799 349.98 92.5799C349.33 93.7799 348.39 94.7299 347.17 95.3999C345.95 96.0799 344.52 96.42 342.88 96.42H338.04V80.4399ZM342.88 94.6199C344.77 94.6199 346.27 94.0799 347.37 92.9899C348.47 91.8999 349.02 90.3899 349.02 88.4399C349.02 86.4899 348.47 84.9699 347.37 83.8899C346.27 82.7999 344.77 82.2599 342.88 82.2599H339.93V94.6299H342.88V94.6199Z" fill="#636D74"/>
<path d="M355.27 96.03C354.43 95.52 353.77 94.82 353.29 93.93C352.81 93.04 352.58 92.02 352.58 90.89C352.58 89.82 352.8 88.83 353.25 87.93C353.7 87.03 354.33 86.31 355.16 85.79C355.99 85.26 356.93 85 358.01 85C359.09 85 360.02 85.24 360.83 85.72C361.64 86.2 362.26 86.89 362.69 87.76C363.12 88.64 363.34 89.65 363.34 90.8C363.34 91.01 363.33 91.16 363.3 91.25H354.5C354.53 92.08 354.73 92.79 355.1 93.36C355.47 93.93 355.94 94.36 356.5 94.64C357.06 94.92 357.63 95.06 358.23 95.06C359.63 95.06 360.71 94.38 361.47 93.01L363.14 93.81C362.66 94.7 362.01 95.42 361.16 95.96C360.32 96.5 359.31 96.78 358.13 96.78C357.06 96.78 356.1 96.53 355.26 96.02L355.27 96.03ZM361.33 89.67C361.3 89.22 361.17 88.78 360.95 88.33C360.73 87.88 360.37 87.5 359.87 87.19C359.37 86.88 358.74 86.72 357.96 86.72C357.13 86.72 356.4 86.99 355.79 87.52C355.18 88.06 354.79 88.77 354.63 89.66H361.33V89.67Z" fill="#636D74"/>
<path d="M363.78 85.3599H365.83L369.22 94.1999H369.26L372.7 85.3599H374.71L370.18 96.4299H368.26L363.77 85.3599H363.78Z" fill="#636D74"/>
<path d="M378.19 96.03C377.35 95.52 376.69 94.82 376.21 93.93C375.73 93.04 375.5 92.02 375.5 90.89C375.5 89.82 375.72 88.83 376.17 87.93C376.62 87.03 377.25 86.31 378.08 85.79C378.91 85.26 379.85 85 380.93 85C382.01 85 382.94 85.24 383.75 85.72C384.56 86.2 385.18 86.89 385.61 87.76C386.04 88.64 386.26 89.65 386.26 90.8C386.26 91.01 386.25 91.16 386.22 91.25H377.42C377.45 92.08 377.65 92.79 378.02 93.36C378.39 93.93 378.86 94.36 379.42 94.64C379.98 94.92 380.55 95.06 381.15 95.06C382.55 95.06 383.63 94.38 384.39 93.01L386.06 93.81C385.58 94.7 384.93 95.42 384.08 95.96C383.24 96.5 382.23 96.78 381.05 96.78C379.98 96.78 379.02 96.53 378.18 96.02L378.19 96.03ZM384.25 89.67C384.22 89.22 384.09 88.78 383.87 88.33C383.65 87.88 383.29 87.5 382.79 87.19C382.29 86.88 381.66 86.72 380.88 86.72C380.05 86.72 379.32 86.99 378.71 87.52C378.1 88.06 377.71 88.77 377.55 89.66H384.25V89.67Z" fill="#636D74"/>
<path d="M388.18 80.4399H390.08V96.42H388.18V80.4399Z" fill="#636D74"/>
<path d="M394.63 96.0198C393.77 95.5098 393.09 94.7998 392.61 93.8998C392.13 92.9998 391.88 91.9998 391.88 90.8998C391.88 89.7998 392.12 88.7998 392.61 87.8998C393.1 86.9998 393.77 86.2898 394.63 85.7798C395.49 85.2698 396.47 85.0098 397.55 85.0098C398.63 85.0098 399.61 85.2698 400.49 85.7798C401.36 86.2898 402.04 86.9998 402.52 87.8998C403 88.7998 403.25 89.7998 403.25 90.8998C403.25 91.9998 403.01 92.9998 402.52 93.8998C402.04 94.7998 401.36 95.5098 400.49 96.0198C399.62 96.5298 398.64 96.7898 397.55 96.7898C396.46 96.7898 395.49 96.5298 394.63 96.0198ZM399.43 94.5598C400.01 94.2198 400.48 93.7298 400.83 93.0998C401.18 92.4698 401.35 91.7298 401.35 90.8998C401.35 90.0698 401.18 89.3298 400.83 88.6998C400.48 88.0698 400.01 87.5798 399.43 87.2398C398.85 86.8998 398.22 86.7298 397.55 86.7298C396.88 86.7298 396.28 86.8998 395.7 87.2398C395.12 87.5798 394.66 88.0698 394.31 88.6998C393.96 89.3298 393.78 90.0698 393.78 90.8998C393.78 91.7298 393.95 92.4698 394.31 93.0998C394.66 93.7298 395.12 94.2198 395.7 94.5598C396.28 94.8998 396.9 95.0698 397.55 95.0698C398.2 95.0698 398.84 94.8998 399.43 94.5598Z" fill="#636D74"/>
<path d="M404.97 85.36H406.78V86.99H406.87C407.23 86.42 407.74 85.95 408.41 85.57C409.08 85.19 409.85 85 410.73 85C411.68 85 412.56 85.26 413.36 85.77C414.16 86.28 414.8 86.99 415.28 87.88C415.76 88.77 415.99 89.78 415.99 90.89C415.99 92 415.75 93.01 415.28 93.9C414.8 94.79 414.16 95.5 413.36 96.01C412.56 96.52 411.68 96.78 410.73 96.78C409.85 96.78 409.07 96.59 408.4 96.21C407.72 95.83 407.21 95.35 406.87 94.77H406.78L406.87 96.31V101.24H404.97V85.34V85.36ZM412.26 94.56C412.82 94.22 413.26 93.73 413.6 93.1C413.93 92.47 414.1 91.73 414.1 90.9C414.1 90.07 413.93 89.33 413.6 88.7C413.27 88.07 412.82 87.58 412.26 87.24C411.7 86.9 411.09 86.73 410.44 86.73C409.79 86.73 409.18 86.9 408.62 87.23C408.06 87.56 407.62 88.05 407.28 88.68C406.94 89.31 406.78 90.05 406.78 90.9C406.78 91.75 406.95 92.47 407.28 93.11C407.61 93.75 408.06 94.24 408.62 94.57C409.18 94.9 409.78 95.07 410.44 95.07C411.1 95.07 411.7 94.9 412.26 94.56Z" fill="#636D74"/>
<path d="M420.43 96.03C419.59 95.52 418.93 94.82 418.45 93.93C417.97 93.04 417.74 92.02 417.74 90.89C417.74 89.82 417.96 88.83 418.41 87.93C418.86 87.03 419.49 86.31 420.32 85.79C421.15 85.26 422.09 85 423.17 85C424.25 85 425.18 85.24 425.99 85.72C426.8 86.2 427.42 86.89 427.85 87.76C428.28 88.64 428.5 89.65 428.5 90.8C428.5 91.01 428.49 91.16 428.46 91.25H419.66C419.69 92.08 419.89 92.79 420.26 93.36C420.63 93.93 421.1 94.36 421.66 94.64C422.22 94.92 422.79 95.06 423.39 95.06C424.79 95.06 425.87 94.38 426.63 93.01L428.3 93.81C427.82 94.7 427.17 95.42 426.32 95.96C425.48 96.5 424.47 96.78 423.29 96.78C422.22 96.78 421.26 96.53 420.42 96.02L420.43 96.03ZM426.49 89.67C426.46 89.22 426.33 88.78 426.11 88.33C425.89 87.88 425.53 87.5 425.03 87.19C424.53 86.88 423.9 86.72 423.12 86.72C422.29 86.72 421.56 86.99 420.95 87.52C420.34 88.06 419.95 88.77 419.79 89.66H426.49V89.67Z" fill="#636D74"/>
<path d="M430.42 85.3598H432.23V87.1698H432.32C432.53 86.5598 432.96 86.0498 433.6 85.6298C434.25 85.2098 434.89 85.0098 435.53 85.0098C435.99 85.0098 436.42 85.0798 436.82 85.2298V87.2598C436.42 87.0398 435.9 86.9298 435.26 86.9298C434.74 86.9298 434.25 87.0798 433.8 87.3898C433.35 87.6998 432.98 88.0998 432.72 88.6098C432.46 89.1198 432.32 89.6698 432.32 90.2698V96.4498H430.42V85.3798V85.3598Z" fill="#636D74"/>
<path d="M446.6 95.6901C445.33 94.9601 444.32 93.9601 443.59 92.6801C442.85 91.4001 442.49 89.9901 442.49 88.4401C442.49 86.8901 442.86 85.4801 443.59 84.2001C444.33 82.9201 445.33 81.9101 446.6 81.1901C447.87 80.4601 449.26 80.1001 450.76 80.1001C451.94 80.1001 453.04 80.3101 454.08 80.7201C455.11 81.1401 455.97 81.7201 456.64 82.4801L455.28 83.8401C454.77 83.2201 454.12 82.7301 453.33 82.4001C452.53 82.0701 451.68 81.9001 450.77 81.9001C449.65 81.9001 448.61 82.1701 447.63 82.7101C446.66 83.2501 445.87 84.0201 445.29 85.0101C444.7 86.0001 444.41 87.1401 444.41 88.4401C444.41 89.7401 444.7 90.8801 445.29 91.8701C445.88 92.8601 446.66 93.6301 447.63 94.1701C448.6 94.7101 449.65 94.9801 450.77 94.9801C451.89 94.9801 452.74 94.8101 453.46 94.4801C454.18 94.1501 454.81 93.7001 455.35 93.1501C455.74 92.7301 456.05 92.2301 456.29 91.6301C456.53 91.0401 456.67 90.3901 456.71 89.6901H450.82V87.9301H458.5C458.57 88.3501 458.61 88.7301 458.61 89.0901C458.61 90.0701 458.45 91.0301 458.14 91.9601C457.83 92.8901 457.33 93.7101 456.64 94.4001C455.14 95.9901 453.18 96.7901 450.77 96.7901C449.27 96.7901 447.88 96.4201 446.61 95.7001L446.6 95.6901Z" fill="#636D74"/>
<path d="M460.76 85.3598H462.57V87.1698H462.66C462.87 86.5598 463.3 86.0498 463.94 85.6298C464.59 85.2098 465.23 85.0098 465.87 85.0098C466.33 85.0098 466.76 85.0798 467.16 85.2298V87.2598C466.76 87.0398 466.24 86.9298 465.6 86.9298C465.08 86.9298 464.59 87.0798 464.14 87.3898C463.69 87.6998 463.32 88.0998 463.06 88.6098C462.8 89.1198 462.66 89.6698 462.66 90.2698V96.4498H460.76V85.3798V85.3598Z" fill="#636D74"/>
<path d="M470.16 96.0198C469.3 95.5098 468.62 94.7998 468.14 93.8998C467.66 92.9998 467.41 91.9998 467.41 90.8998C467.41 89.7998 467.65 88.7998 468.14 87.8998C468.63 86.9998 469.3 86.2898 470.16 85.7798C471.02 85.2698 472 85.0098 473.08 85.0098C474.16 85.0098 475.14 85.2698 476.02 85.7798C476.89 86.2898 477.57 86.9998 478.05 87.8998C478.53 88.7998 478.78 89.7998 478.78 90.8998C478.78 91.9998 478.54 92.9998 478.05 93.8998C477.57 94.7998 476.89 95.5098 476.02 96.0198C475.15 96.5298 474.17 96.7898 473.08 96.7898C471.99 96.7898 471.02 96.5298 470.16 96.0198ZM474.96 94.5598C475.54 94.2198 476.01 93.7298 476.36 93.0998C476.71 92.4698 476.88 91.7298 476.88 90.8998C476.88 90.0698 476.71 89.3298 476.36 88.6998C476.01 88.0698 475.54 87.5798 474.96 87.2398C474.38 86.8998 473.75 86.7298 473.08 86.7298C472.41 86.7298 471.81 86.8998 471.23 87.2398C470.65 87.5798 470.19 88.0698 469.84 88.6998C469.49 89.3298 469.31 90.0698 469.31 90.8998C469.31 91.7298 469.48 92.4698 469.84 93.0998C470.19 93.7298 470.65 94.2198 471.23 94.5598C471.81 94.8998 472.43 95.0698 473.08 95.0698C473.73 95.0698 474.37 94.8998 474.96 94.5598Z" fill="#636D74"/>
<path d="M481.56 95.6001C480.85 94.8101 480.5 93.7201 480.5 92.3201V85.3501H482.4V92.0001C482.4 94.0401 483.32 95.0601 485.15 95.0601C485.76 95.0601 486.31 94.8901 486.79 94.5501C487.27 94.2101 487.65 93.7601 487.91 93.2101C488.17 92.6601 488.3 92.0801 488.3 91.4701V85.3501H490.18V96.4201H488.39V94.7701H488.3C487.97 95.3401 487.48 95.8101 486.82 96.2001C486.16 96.5901 485.45 96.7801 484.69 96.7801C483.32 96.7801 482.28 96.3901 481.58 95.6001H481.56Z" fill="#636D74"/>
<path d="M492.64 85.36H494.45V86.99H494.54C494.9 86.42 495.41 85.95 496.08 85.57C496.75 85.19 497.52 85 498.4 85C499.35 85 500.23 85.26 501.03 85.77C501.83 86.28 502.47 86.99 502.95 87.88C503.43 88.77 503.66 89.78 503.66 90.89C503.66 92 503.42 93.01 502.95 93.9C502.47 94.79 501.83 95.5 501.03 96.01C500.23 96.52 499.35 96.78 498.4 96.78C497.52 96.78 496.74 96.59 496.07 96.21C495.39 95.83 494.88 95.35 494.54 94.77H494.45L494.54 96.31V101.24H492.64V85.34V85.36ZM499.93 94.56C500.49 94.22 500.93 93.73 501.27 93.1C501.6 92.47 501.77 91.73 501.77 90.9C501.77 90.07 501.6 89.33 501.27 88.7C500.94 88.07 500.49 87.58 499.93 87.24C499.37 86.9 498.76 86.73 498.11 86.73C497.46 86.73 496.85 86.9 496.29 87.23C495.73 87.56 495.29 88.05 494.95 88.68C494.61 89.31 494.45 90.05 494.45 90.9C494.45 91.75 494.62 92.47 494.95 93.11C495.28 93.75 495.73 94.24 496.29 94.57C496.85 94.9 497.45 95.07 498.11 95.07C498.77 95.07 499.37 94.9 499.93 94.56Z" fill="#636D74"/>
<path d="M506.39 95.8902C505.57 95.3002 505 94.5602 504.67 93.6802L506.34 92.9402C506.64 93.6402 507.06 94.1802 507.6 94.5502C508.14 94.9202 508.73 95.1102 509.37 95.1102C510.08 95.1102 510.68 94.9502 511.14 94.6402C511.6 94.3302 511.84 93.9502 511.84 93.5002C511.84 93.0502 511.67 92.7102 511.32 92.4302C510.97 92.1502 510.37 91.9002 509.52 91.6902L508 91.3102C507.17 91.1202 506.46 90.7702 505.87 90.2602C505.28 89.7502 504.99 89.0802 504.99 88.2502C504.99 87.5702 505.19 86.9802 505.58 86.4902C505.97 86.0002 506.5 85.6302 507.15 85.3702C507.8 85.1202 508.52 84.9902 509.29 84.9902C510.24 84.9902 511.11 85.2102 511.89 85.6502C512.67 86.0902 513.22 86.7102 513.55 87.5102L511.88 88.2202C511.64 87.6802 511.28 87.2902 510.8 87.0402C510.32 86.7902 509.78 86.6602 509.18 86.6602C508.58 86.6602 508.07 86.8002 507.61 87.0802C507.14 87.3602 506.91 87.7302 506.91 88.1702C506.91 88.5602 507.06 88.8602 507.37 89.0902C507.67 89.3102 508.16 89.5102 508.83 89.6902L510.48 90.0902C511.58 90.3702 512.4 90.7902 512.95 91.3502C513.49 91.9102 513.76 92.5702 513.76 93.3502C513.76 93.9902 513.57 94.5702 513.2 95.0902C512.83 95.6102 512.31 96.0202 511.64 96.3202C510.97 96.6202 510.21 96.7702 509.36 96.7702C508.18 96.7702 507.19 96.4702 506.37 95.8802L506.39 95.8902Z" fill="#636D74"/>
<path d="M363.64 37.5298L377.95 29.2698C381.32 27.3298 382.47 23.0198 380.53 19.6498C378.59 16.2798 374.28 15.1298 370.91 17.0698L346.18 31.3498L363.64 37.5298Z" fill="#FD2C25"/>
<path d="M374.42 58.7701C376.85 58.7701 379.22 57.5101 380.53 55.2501C382.47 51.8801 381.32 47.5701 377.95 45.6301L353.22 31.3501C349.85 29.4001 345.54 30.5601 343.6 33.9301C341.66 37.3001 342.81 41.6101 346.18 43.5501L370.91 57.8301C372.02 58.4701 373.23 58.7701 374.42 58.7701Z" fill="#2B82FB"/>
<path d="M399.02 58.7702C400.21 58.7702 401.43 58.4702 402.53 57.8302L427.26 43.5502L410.02 37.2402L395.49 45.6302C392.12 47.5702 390.97 51.8802 392.91 55.2502C394.21 57.5102 396.58 58.7702 399.02 58.7702Z" fill="#FFBA00"/>
<path d="M423.74 44.4898C426.17 44.4898 428.54 43.2298 429.85 40.9698C431.79 37.5998 430.64 33.2998 427.27 31.3498L402.54 17.0698C399.17 15.1298 394.87 16.2798 392.92 19.6498C390.98 23.0198 392.13 27.3198 395.5 29.2698L420.23 43.5498C421.34 44.1898 422.55 44.4898 423.74 44.4898Z" fill="#00A150"/>
<path d="M340.443 121.192C339.171 121.192 338.107 120.764 337.251 119.908C336.403 119.052 335.979 117.984 335.979 116.704C335.979 115.424 336.403 114.36 337.251 113.512C338.099 112.648 339.163 112.216 340.443 112.216C341.739 112.216 342.791 112.684 343.599 113.62L342.807 114.388C342.191 113.644 341.403 113.272 340.443 113.272C339.491 113.272 338.695 113.592 338.055 114.232C337.423 114.864 337.107 115.688 337.107 116.704C337.107 117.72 337.423 118.544 338.055 119.176C338.695 119.816 339.491 120.136 340.443 120.136C341.443 120.136 342.311 119.716 343.047 118.876L343.851 119.656C343.443 120.144 342.943 120.524 342.351 120.796C341.759 121.06 341.123 121.192 340.443 121.192ZM344.379 118.06C344.379 117.156 344.663 116.408 345.231 115.816C345.807 115.224 346.531 114.928 347.403 114.928C348.275 114.928 348.995 115.224 349.563 115.816C350.139 116.408 350.427 117.156 350.427 118.06C350.427 118.972 350.139 119.72 349.563 120.304C348.995 120.896 348.275 121.192 347.403 121.192C346.531 121.192 345.807 120.896 345.231 120.304C344.663 119.712 344.379 118.964 344.379 118.06ZM345.483 118.06C345.483 118.692 345.667 119.204 346.035 119.596C346.403 119.988 346.859 120.184 347.403 120.184C347.947 120.184 348.403 119.988 348.771 119.596C349.139 119.204 349.323 118.692 349.323 118.06C349.323 117.436 349.139 116.928 348.771 116.536C348.395 116.136 347.939 115.936 347.403 115.936C346.867 115.936 346.411 116.136 346.035 116.536C345.667 116.928 345.483 117.436 345.483 118.06ZM354.118 121.192C353.246 121.192 352.522 120.896 351.946 120.304C351.378 119.696 351.094 118.948 351.094 118.06C351.094 117.156 351.378 116.408 351.946 115.816C352.522 115.224 353.246 114.928 354.118 114.928C354.718 114.928 355.242 115.08 355.69 115.384C356.138 115.68 356.474 116.092 356.698 116.62L355.69 117.04C355.378 116.304 354.83 115.936 354.046 115.936C353.542 115.936 353.106 116.14 352.738 116.548C352.378 116.956 352.198 117.46 352.198 118.06C352.198 118.66 352.378 119.164 352.738 119.572C353.106 119.98 353.542 120.184 354.046 120.184C354.854 120.184 355.422 119.816 355.75 119.08L356.734 119.5C356.518 120.028 356.178 120.444 355.714 120.748C355.258 121.044 354.726 121.192 354.118 121.192ZM357.699 112.408H358.803V115.12L358.755 115.936H358.803C358.971 115.648 359.227 115.408 359.571 115.216C359.923 115.024 360.287 114.928 360.663 114.928C361.383 114.928 361.935 115.136 362.319 115.552C362.711 115.96 362.907 116.544 362.907 117.304V121H361.803V117.52C361.803 116.464 361.335 115.936 360.399 115.936C359.951 115.936 359.571 116.124 359.259 116.5C358.955 116.868 358.803 117.3 358.803 117.796V121H357.699V112.408ZM365.631 113.092C365.631 113.308 365.555 113.492 365.403 113.644C365.251 113.796 365.067 113.872 364.851 113.872C364.635 113.872 364.451 113.796 364.299 113.644C364.147 113.492 364.071 113.308 364.071 113.092C364.071 112.876 364.147 112.692 364.299 112.54C364.451 112.388 364.635 112.312 364.851 112.312C365.067 112.312 365.251 112.388 365.403 112.54C365.555 112.692 365.631 112.876 365.631 113.092ZM365.403 115.12V121H364.299V115.12H365.403ZM366.84 115.12H367.896V115.936H367.944C368.112 115.648 368.368 115.408 368.712 115.216C369.064 115.024 369.428 114.928 369.804 114.928C370.524 114.928 371.076 115.136 371.46 115.552C371.852 115.96 372.048 116.544 372.048 117.304V121H370.944V117.376C370.92 116.416 370.436 115.936 369.492 115.936C369.052 115.936 368.684 116.116 368.388 116.476C368.092 116.828 367.944 117.252 367.944 117.748V121H366.84V115.12ZM385.349 121.192C384.077 121.192 383.013 120.764 382.157 119.908C381.309 119.052 380.885 117.984 380.885 116.704C380.885 115.424 381.309 114.36 382.157 113.512C383.005 112.648 384.069 112.216 385.349 112.216C386.645 112.216 387.697 112.684 388.505 113.62L387.713 114.388C387.097 113.644 386.309 113.272 385.349 113.272C384.397 113.272 383.601 113.592 382.961 114.232C382.329 114.864 382.013 115.688 382.013 116.704C382.013 117.72 382.329 118.544 382.961 119.176C383.601 119.816 384.397 120.136 385.349 120.136C386.349 120.136 387.217 119.716 387.953 118.876L388.757 119.656C388.349 120.144 387.849 120.524 387.257 120.796C386.665 121.06 386.029 121.192 385.349 121.192ZM390.842 112.408V121H389.738V112.408H390.842ZM391.793 118.06C391.793 117.156 392.077 116.408 392.645 115.816C393.221 115.224 393.945 114.928 394.817 114.928C395.689 114.928 396.409 115.224 396.977 115.816C397.553 116.408 397.841 117.156 397.841 118.06C397.841 118.972 397.553 119.72 396.977 120.304C396.409 120.896 395.689 121.192 394.817 121.192C393.945 121.192 393.221 120.896 392.645 120.304C392.077 119.712 391.793 118.964 391.793 118.06ZM392.897 118.06C392.897 118.692 393.081 119.204 393.449 119.596C393.817 119.988 394.273 120.184 394.817 120.184C395.361 120.184 395.817 119.988 396.185 119.596C396.553 119.204 396.737 118.692 396.737 118.06C396.737 117.436 396.553 116.928 396.185 116.536C395.809 116.136 395.353 115.936 394.817 115.936C394.281 115.936 393.825 116.136 393.449 116.536C393.081 116.928 392.897 117.436 392.897 118.06ZM403.945 121H402.889V120.184H402.841C402.673 120.472 402.413 120.712 402.061 120.904C401.717 121.096 401.357 121.192 400.981 121.192C400.261 121.192 399.705 120.988 399.313 120.58C398.929 120.164 398.737 119.576 398.737 118.816V115.12H399.841V118.744C399.865 119.704 400.349 120.184 401.293 120.184C401.733 120.184 402.101 120.008 402.397 119.656C402.693 119.296 402.841 118.868 402.841 118.372V115.12H403.945V121ZM407.871 120.184C408.415 120.184 408.859 119.988 409.203 119.596C409.563 119.204 409.743 118.692 409.743 118.06C409.743 117.444 409.563 116.936 409.203 116.536C408.851 116.136 408.407 115.936 407.871 115.936C407.343 115.936 406.899 116.136 406.539 116.536C406.179 116.936 405.999 117.444 405.999 118.06C405.999 118.684 406.179 119.192 406.539 119.584C406.899 119.984 407.343 120.184 407.871 120.184ZM407.691 121.192C406.923 121.192 406.263 120.888 405.711 120.28C405.167 119.664 404.895 118.924 404.895 118.06C404.895 117.196 405.167 116.456 405.711 115.84C406.263 115.232 406.923 114.928 407.691 114.928C408.123 114.928 408.515 115.02 408.867 115.204C409.227 115.388 409.503 115.632 409.695 115.936H409.743L409.695 115.12V112.408H410.799V121H409.743V120.184H409.695C409.503 120.488 409.227 120.732 408.867 120.916C408.515 121.1 408.123 121.192 407.691 121.192ZM419.905 112.408H421.333V112.456L418.141 116.14L421.549 120.952V121H420.193L417.397 116.992L416.077 118.516V121H414.973V112.408H416.077V116.836H416.125L419.905 112.408ZM421.676 118.06C421.676 117.156 421.96 116.408 422.528 115.816C423.104 115.224 423.828 114.928 424.7 114.928C425.572 114.928 426.292 115.224 426.86 115.816C427.436 116.408 427.724 117.156 427.724 118.06C427.724 118.972 427.436 119.72 426.86 120.304C426.292 120.896 425.572 121.192 424.7 121.192C423.828 121.192 423.104 120.896 422.528 120.304C421.96 119.712 421.676 118.964 421.676 118.06ZM422.78 118.06C422.78 118.692 422.964 119.204 423.332 119.596C423.7 119.988 424.156 120.184 424.7 120.184C425.244 120.184 425.7 119.988 426.068 119.596C426.436 119.204 426.62 118.692 426.62 118.06C426.62 117.436 426.436 116.928 426.068 116.536C425.692 116.136 425.236 115.936 424.7 115.936C424.164 115.936 423.708 116.136 423.332 116.536C422.964 116.928 422.78 117.436 422.78 118.06ZM431.415 121.192C430.543 121.192 429.819 120.896 429.243 120.304C428.675 119.696 428.391 118.948 428.391 118.06C428.391 117.156 428.675 116.408 429.243 115.816C429.819 115.224 430.543 114.928 431.415 114.928C432.015 114.928 432.539 115.08 432.987 115.384C433.435 115.68 433.771 116.092 433.995 116.62L432.987 117.04C432.675 116.304 432.127 115.936 431.343 115.936C430.839 115.936 430.403 116.14 430.035 116.548C429.675 116.956 429.495 117.46 429.495 118.06C429.495 118.66 429.675 119.164 430.035 119.572C430.403 119.98 430.839 120.184 431.343 120.184C432.151 120.184 432.719 119.816 433.047 119.08L434.031 119.5C433.815 120.028 433.475 120.444 433.011 120.748C432.555 121.044 432.023 121.192 431.415 121.192ZM434.996 112.408H436.1V115.12L436.052 115.936H436.1C436.268 115.648 436.524 115.408 436.868 115.216C437.22 115.024 437.584 114.928 437.96 114.928C438.68 114.928 439.232 115.136 439.616 115.552C440.008 115.96 440.204 116.544 440.204 117.304V121H439.1V117.52C439.1 116.464 438.632 115.936 437.696 115.936C437.248 115.936 436.868 116.124 436.556 116.5C436.252 116.868 436.1 117.3 436.1 117.796V121H434.996V112.408ZM442.928 113.092C442.928 113.308 442.852 113.492 442.7 113.644C442.548 113.796 442.364 113.872 442.148 113.872C441.932 113.872 441.748 113.796 441.596 113.644C441.444 113.492 441.368 113.308 441.368 113.092C441.368 112.876 441.444 112.692 441.596 112.54C441.748 112.388 441.932 112.312 442.148 112.312C442.364 112.312 442.548 112.388 442.7 112.54C442.852 112.692 442.928 112.876 442.928 113.092ZM442.7 115.12V121H441.596V115.12H442.7Z" fill="#00A150"/>
<path d="M377.181 122.44H376.173V111.496H377.181V122.44Z" fill="white"/>
<path d="M119.39 172.25C117.624 174.383 115.54 176.017 113.14 177.15C110.74 178.25 108.057 178.8 105.09 178.8C102.424 178.8 99.9402 178.317 97.6402 177.35C95.3736 176.383 93.4069 175.067 91.7402 173.4C90.0736 171.733 88.7569 169.767 87.7902 167.5C86.8236 165.2 86.3402 162.733 86.3402 160.1C86.3402 157.467 86.8236 155.017 87.7902 152.75C88.7569 150.45 90.0736 148.467 91.7402 146.8C93.4069 145.133 95.3736 143.817 97.6402 142.85C99.9402 141.883 102.424 141.4 105.09 141.4C107.957 141.4 110.474 141.9 112.64 142.9C114.84 143.9 116.79 145.35 118.49 147.25L113.74 151.85C112.674 150.617 111.44 149.633 110.04 148.9C108.674 148.167 107.04 147.8 105.14 147.8C103.474 147.8 101.907 148.1 100.44 148.7C98.9736 149.267 97.6902 150.083 96.5902 151.15C95.5236 152.217 94.6736 153.517 94.0402 155.05C93.4069 156.55 93.0902 158.233 93.0902 160.1C93.0902 161.967 93.4069 163.667 94.0402 165.2C94.6736 166.7 95.5236 167.983 96.5902 169.05C97.6902 170.117 98.9736 170.95 100.44 171.55C101.907 172.117 103.474 172.4 105.14 172.4C107.14 172.4 108.907 172 110.44 171.2C112.007 170.367 113.39 169.2 114.59 167.7L119.39 172.25ZM121.521 178V142.2H128.071V178H121.521ZM143.035 152.7C144.935 152.7 146.668 153.033 148.235 153.7C149.835 154.333 151.201 155.233 152.335 156.4C153.501 157.533 154.401 158.9 155.035 160.5C155.701 162.1 156.035 163.85 156.035 165.75C156.035 167.65 155.701 169.4 155.035 171C154.401 172.6 153.501 173.983 152.335 175.15C151.201 176.283 149.835 177.183 148.235 177.85C146.668 178.483 144.935 178.8 143.035 178.8C141.135 178.8 139.385 178.483 137.785 177.85C136.218 177.183 134.851 176.283 133.685 175.15C132.551 173.983 131.651 172.6 130.985 171C130.351 169.4 130.035 167.65 130.035 165.75C130.035 163.85 130.351 162.1 130.985 160.5C131.651 158.9 132.551 157.533 133.685 156.4C134.851 155.233 136.218 154.333 137.785 153.7C139.385 153.033 141.135 152.7 143.035 152.7ZM143.035 172.75C143.868 172.75 144.668 172.6 145.435 172.3C146.235 171.967 146.935 171.5 147.535 170.9C148.135 170.3 148.601 169.567 148.935 168.7C149.301 167.833 149.485 166.85 149.485 165.75C149.485 164.65 149.301 163.667 148.935 162.8C148.601 161.933 148.135 161.2 147.535 160.6C146.935 160 146.235 159.55 145.435 159.25C144.668 158.917 143.868 158.75 143.035 158.75C142.168 158.75 141.351 158.917 140.585 159.25C139.818 159.55 139.135 160 138.535 160.6C137.935 161.2 137.451 161.933 137.085 162.8C136.751 163.667 136.585 164.65 136.585 165.75C136.585 166.85 136.751 167.833 137.085 168.7C137.451 169.567 137.935 170.3 138.535 170.9C139.135 171.5 139.818 171.967 140.585 172.3C141.351 172.6 142.168 172.75 143.035 172.75ZM174.949 174.8H174.549C173.783 176.033 172.749 177.017 171.449 177.75C170.149 178.45 168.666 178.8 166.999 178.8C163.899 178.8 161.583 177.85 160.049 175.95C158.549 174.05 157.799 171.517 157.799 168.35V153.5H164.349V167.55C164.349 169.317 164.733 170.633 165.499 171.5C166.299 172.333 167.449 172.75 168.949 172.75C169.849 172.75 170.633 172.567 171.299 172.2C171.999 171.8 172.583 171.283 173.049 170.65C173.549 169.983 173.916 169.217 174.149 168.35C174.416 167.45 174.549 166.5 174.549 165.5V153.5H181.099V178H174.949V174.8ZM202.716 175.05H202.316C201.716 176.083 200.783 176.967 199.516 177.7C198.249 178.433 196.683 178.8 194.816 178.8C193.249 178.8 191.749 178.483 190.316 177.85C188.916 177.183 187.666 176.283 186.566 175.15C185.499 173.983 184.649 172.6 184.016 171C183.383 169.4 183.066 167.65 183.066 165.75C183.066 163.85 183.383 162.1 184.016 160.5C184.649 158.9 185.499 157.533 186.566 156.4C187.666 155.233 188.916 154.333 190.316 153.7C191.749 153.033 193.249 152.7 194.816 152.7C196.683 152.7 198.249 153.067 199.516 153.8C200.783 154.533 201.716 155.417 202.316 156.45H202.716L202.316 152.95V142.2H208.866V178H202.716V175.05ZM196.166 172.75C197.033 172.75 197.849 172.6 198.616 172.3C199.416 171.967 200.116 171.5 200.716 170.9C201.316 170.3 201.799 169.567 202.166 168.7C202.533 167.833 202.716 166.85 202.716 165.75C202.716 164.65 202.533 163.667 202.166 162.8C201.799 161.933 201.316 161.2 200.716 160.6C200.116 160 199.416 159.55 198.616 159.25C197.849 158.917 197.033 158.75 196.166 158.75C195.299 158.75 194.466 158.917 193.666 159.25C192.899 159.583 192.216 160.05 191.616 160.65C191.016 161.25 190.533 161.983 190.166 162.85C189.799 163.717 189.616 164.683 189.616 165.75C189.616 166.817 189.799 167.783 190.166 168.65C190.533 169.517 191.016 170.25 191.616 170.85C192.216 171.45 192.899 171.917 193.666 172.25C194.466 172.583 195.299 172.75 196.166 172.75ZM252.556 172.25C250.79 174.383 248.706 176.017 246.306 177.15C243.906 178.25 241.223 178.8 238.256 178.8C235.59 178.8 233.106 178.317 230.806 177.35C228.54 176.383 226.573 175.067 224.906 173.4C223.24 171.733 221.923 169.767 220.956 167.5C219.99 165.2 219.506 162.733 219.506 160.1C219.506 157.467 219.99 155.017 220.956 152.75C221.923 150.45 223.24 148.467 224.906 146.8C226.573 145.133 228.54 143.817 230.806 142.85C233.106 141.883 235.59 141.4 238.256 141.4C241.123 141.4 243.64 141.9 245.806 142.9C248.006 143.9 249.956 145.35 251.656 147.25L246.906 151.85C245.84 150.617 244.606 149.633 243.206 148.9C241.84 148.167 240.206 147.8 238.306 147.8C236.64 147.8 235.073 148.1 233.606 148.7C232.14 149.267 230.856 150.083 229.756 151.15C228.69 152.217 227.84 153.517 227.206 155.05C226.573 156.55 226.256 158.233 226.256 160.1C226.256 161.967 226.573 163.667 227.206 165.2C227.84 166.7 228.69 167.983 229.756 169.05C230.856 170.117 232.14 170.95 233.606 171.55C235.073 172.117 236.64 172.4 238.306 172.4C240.306 172.4 242.073 172 243.606 171.2C245.173 170.367 246.556 169.2 247.756 167.7L252.556 172.25ZM265.798 152.7C267.698 152.7 269.432 153.033 270.998 153.7C272.598 154.333 273.965 155.233 275.098 156.4C276.265 157.533 277.165 158.9 277.798 160.5C278.465 162.1 278.798 163.85 278.798 165.75C278.798 167.65 278.465 169.4 277.798 171C277.165 172.6 276.265 173.983 275.098 175.15C273.965 176.283 272.598 177.183 270.998 177.85C269.432 178.483 267.698 178.8 265.798 178.8C263.898 178.8 262.148 178.483 260.548 177.85C258.982 177.183 257.615 176.283 256.448 175.15C255.315 173.983 254.415 172.6 253.748 171C253.115 169.4 252.798 167.65 252.798 165.75C252.798 163.85 253.115 162.1 253.748 160.5C254.415 158.9 255.315 157.533 256.448 156.4C257.615 155.233 258.982 154.333 260.548 153.7C262.148 153.033 263.898 152.7 265.798 152.7ZM265.798 172.75C266.632 172.75 267.432 172.6 268.198 172.3C268.998 171.967 269.698 171.5 270.298 170.9C270.898 170.3 271.365 169.567 271.698 168.7C272.065 167.833 272.248 166.85 272.248 165.75C272.248 164.65 272.065 163.667 271.698 162.8C271.365 161.933 270.898 161.2 270.298 160.6C269.698 160 268.998 159.55 268.198 159.25C267.432 158.917 266.632 158.75 265.798 158.75C264.932 158.75 264.115 158.917 263.348 159.25C262.582 159.55 261.898 160 261.298 160.6C260.698 161.2 260.215 161.933 259.848 162.8C259.515 163.667 259.348 164.65 259.348 165.75C259.348 166.85 259.515 167.833 259.848 168.7C260.215 169.567 260.698 170.3 261.298 170.9C261.898 171.5 262.582 171.967 263.348 172.3C264.115 172.6 264.932 172.75 265.798 172.75ZM280.519 153.5H286.669V156.7H287.069C287.835 155.5 288.869 154.533 290.169 153.8C291.502 153.067 292.969 152.7 294.569 152.7C296.435 152.7 298.002 153.133 299.269 154C300.535 154.867 301.435 155.933 301.969 157.2C302.735 155.967 303.819 154.917 305.219 154.05C306.619 153.15 308.319 152.7 310.319 152.7C311.819 152.7 313.119 152.95 314.219 153.45C315.319 153.917 316.219 154.583 316.919 155.45C317.652 156.317 318.202 157.367 318.569 158.6C318.935 159.8 319.119 161.117 319.119 162.55V178H312.569V163.75C312.569 160.417 311.202 158.75 308.469 158.75C307.602 158.75 306.835 158.95 306.169 159.35C305.502 159.717 304.935 160.233 304.469 160.9C304.035 161.533 303.685 162.3 303.419 163.2C303.185 164.1 303.069 165.067 303.069 166.1V178H296.519V163.75C296.519 160.417 295.085 158.75 292.219 158.75C291.385 158.75 290.652 158.95 290.019 159.35C289.385 159.717 288.852 160.233 288.419 160.9C287.985 161.533 287.652 162.3 287.419 163.2C287.185 164.1 287.069 165.067 287.069 166.1V178H280.519V153.5ZM322.513 153.5H328.663V156.7H329.063C329.83 155.5 330.863 154.533 332.163 153.8C333.496 153.067 334.963 152.7 336.563 152.7C338.43 152.7 339.996 153.133 341.263 154C342.53 154.867 343.43 155.933 343.963 157.2C344.73 155.967 345.813 154.917 347.213 154.05C348.613 153.15 350.313 152.7 352.313 152.7C353.813 152.7 355.113 152.95 356.213 153.45C357.313 153.917 358.213 154.583 358.913 155.45C359.646 156.317 360.196 157.367 360.563 158.6C360.93 159.8 361.113 161.117 361.113 162.55V178H354.563V163.75C354.563 160.417 353.196 158.75 350.463 158.75C349.596 158.75 348.83 158.95 348.163 159.35C347.496 159.717 346.93 160.233 346.463 160.9C346.03 161.533 345.68 162.3 345.413 163.2C345.18 164.1 345.063 165.067 345.063 166.1V178H338.513V163.75C338.513 160.417 337.08 158.75 334.213 158.75C333.38 158.75 332.646 158.95 332.013 159.35C331.38 159.717 330.846 160.233 330.413 160.9C329.98 161.533 329.646 162.3 329.413 163.2C329.18 164.1 329.063 165.067 329.063 166.1V178H322.513V153.5ZM381.457 174.8H381.057C380.29 176.033 379.257 177.017 377.957 177.75C376.657 178.45 375.174 178.8 373.507 178.8C370.407 178.8 368.09 177.85 366.557 175.95C365.057 174.05 364.307 171.517 364.307 168.35V153.5H370.857V167.55C370.857 169.317 371.24 170.633 372.007 171.5C372.807 172.333 373.957 172.75 375.457 172.75C376.357 172.75 377.14 172.567 377.807 172.2C378.507 171.8 379.09 171.283 379.557 170.65C380.057 169.983 380.424 169.217 380.657 168.35C380.924 167.45 381.057 166.5 381.057 165.5V153.5H387.607V178H381.457V174.8ZM397.368 156.7H397.768C398.535 155.467 399.568 154.5 400.868 153.8C402.168 153.067 403.651 152.7 405.318 152.7C406.851 152.7 408.201 152.95 409.368 153.45C410.535 153.95 411.485 154.667 412.218 155.6C412.985 156.5 413.551 157.6 413.918 158.9C414.318 160.167 414.518 161.583 414.518 163.15V178H407.968V163.95C407.968 162.183 407.568 160.883 406.768 160.05C406.001 159.183 404.868 158.75 403.368 158.75C402.468 158.75 401.668 158.95 400.968 159.35C400.301 159.717 399.718 160.233 399.218 160.9C398.751 161.533 398.385 162.3 398.118 163.2C397.885 164.067 397.768 165 397.768 166V178H391.218V153.5H397.368V156.7ZM421.579 149.95C421.012 149.95 420.462 149.85 419.929 149.65C419.429 149.417 418.979 149.117 418.579 148.75C418.212 148.35 417.912 147.9 417.679 147.4C417.479 146.9 417.379 146.35 417.379 145.75C417.379 145.15 417.479 144.6 417.679 144.1C417.912 143.6 418.212 143.167 418.579 142.8C418.979 142.4 419.429 142.1 419.929 141.9C420.462 141.667 421.012 141.55 421.579 141.55C422.746 141.55 423.746 141.967 424.579 142.8C425.412 143.6 425.829 144.583 425.829 145.75C425.829 146.917 425.412 147.917 424.579 148.75C423.746 149.55 422.746 149.95 421.579 149.95ZM418.329 178V153.5H424.879V178H418.329ZM431.324 159.1H427.024V153.5H431.324V146H437.874V153.5H443.874V159.1H437.874V168.6C437.874 169.167 437.924 169.7 438.024 170.2C438.158 170.667 438.391 171.067 438.724 171.4C439.191 171.933 439.858 172.2 440.724 172.2C441.291 172.2 441.741 172.15 442.074 172.05C442.408 171.917 442.724 171.75 443.024 171.55L444.874 177.3C444.108 177.667 443.274 177.933 442.374 178.1C441.508 178.3 440.541 178.4 439.474 178.4C438.241 178.4 437.124 178.217 436.124 177.85C435.158 177.45 434.341 176.917 433.674 176.25C432.108 174.75 431.324 172.617 431.324 169.85V159.1ZM454.637 176.8L444.337 153.5H451.787L457.987 168.35H458.337L464.287 153.5H471.587L456.237 188.8H449.187L454.637 176.8ZM482.36 142.2H494.46C497.293 142.2 499.843 142.633 502.11 143.5C504.376 144.367 506.31 145.6 507.91 147.2C509.51 148.767 510.726 150.65 511.56 152.85C512.426 155.05 512.86 157.467 512.86 160.1C512.86 162.767 512.426 165.2 511.56 167.4C510.726 169.6 509.51 171.483 507.91 173.05C506.31 174.617 504.376 175.833 502.11 176.7C499.843 177.567 497.293 178 494.46 178H482.36V142.2ZM494.16 171.6C496.126 171.6 497.86 171.333 499.36 170.8C500.86 170.233 502.11 169.45 503.11 168.45C504.11 167.45 504.86 166.25 505.36 164.85C505.86 163.417 506.11 161.833 506.11 160.1C506.11 158.367 505.86 156.8 505.36 155.4C504.86 153.967 504.11 152.75 503.11 151.75C502.11 150.75 500.86 149.983 499.36 149.45C497.86 148.883 496.126 148.6 494.16 148.6H489.11V171.6H494.16ZM530.597 175.4H530.197C529.431 176.333 528.497 177.133 527.397 177.8C526.331 178.467 524.947 178.8 523.247 178.8C521.981 178.8 520.781 178.583 519.647 178.15C518.547 177.75 517.581 177.183 516.747 176.45C515.914 175.717 515.264 174.833 514.797 173.8C514.331 172.767 514.097 171.633 514.097 170.4C514.097 169.133 514.347 168 514.847 167C515.347 165.967 516.047 165.083 516.947 164.35C517.847 163.617 518.897 163.067 520.097 162.7C521.331 162.3 522.664 162.1 524.097 162.1C525.697 162.1 527.014 162.233 528.047 162.5C529.081 162.733 529.931 162.983 530.597 163.25V162.5C530.597 161.2 530.081 160.133 529.047 159.3C528.014 158.433 526.731 158 525.197 158C522.931 158 521.014 158.95 519.447 160.85L514.697 157.6C517.297 154.333 520.847 152.7 525.347 152.7C529.147 152.7 532.047 153.6 534.047 155.4C536.047 157.167 537.047 159.8 537.047 163.3V178H530.597V175.4ZM530.597 168.05C529.831 167.683 529.031 167.4 528.197 167.2C527.397 166.967 526.514 166.85 525.547 166.85C523.981 166.85 522.764 167.2 521.897 167.9C521.064 168.567 520.647 169.4 520.647 170.4C520.647 171.4 521.047 172.2 521.847 172.8C522.681 173.4 523.631 173.7 524.697 173.7C525.564 173.7 526.364 173.55 527.097 173.25C527.831 172.917 528.447 172.5 528.947 172C529.481 171.467 529.881 170.867 530.147 170.2C530.447 169.5 530.597 168.783 530.597 168.05ZM547.467 176.8L537.167 153.5H544.617L550.817 168.35H551.167L557.117 153.5H564.417L549.067 188.8H542.017L547.467 176.8ZM573.89 178V172.05C575.857 170.117 577.673 168.317 579.34 166.65C580.04 165.95 580.757 165.233 581.49 164.5C582.223 163.767 582.907 163.083 583.54 162.45C584.173 161.817 584.74 161.25 585.24 160.75C585.74 160.217 586.123 159.8 586.39 159.5C586.923 158.867 587.39 158.3 587.79 157.8C588.223 157.3 588.557 156.817 588.79 156.35C589.057 155.85 589.257 155.367 589.39 154.9C589.523 154.4 589.59 153.867 589.59 153.3C589.59 152.2 589.157 151.25 588.29 150.45C587.423 149.617 586.24 149.2 584.74 149.2C583.24 149.2 582.073 149.633 581.24 150.5C580.407 151.333 579.84 152.283 579.54 153.35L573.59 150.9C573.857 150 574.29 149.083 574.89 148.15C575.49 147.183 576.257 146.333 577.19 145.6C578.123 144.833 579.223 144.217 580.49 143.75C581.79 143.25 583.24 143 584.84 143C586.573 143 588.14 143.267 589.54 143.8C590.94 144.3 592.123 145 593.09 145.9C594.057 146.8 594.807 147.867 595.34 149.1C595.873 150.3 596.14 151.6 596.14 153C596.14 155.133 595.607 157.1 594.54 158.9C593.507 160.667 592.24 162.317 590.74 163.85L586.44 168.15C585.307 169.283 584.023 170.55 582.59 171.95L582.79 172.25H596.64V178H573.89ZM613.386 178.8C611.186 178.8 609.203 178.35 607.436 177.45C605.669 176.517 604.153 175.25 602.886 173.65C601.653 172.05 600.703 170.167 600.036 168C599.369 165.8 599.036 163.433 599.036 160.9C599.036 158.367 599.369 156.017 600.036 153.85C600.703 151.65 601.653 149.75 602.886 148.15C604.153 146.55 605.669 145.3 607.436 144.4C609.203 143.467 611.186 143 613.386 143C615.586 143 617.569 143.467 619.336 144.4C621.103 145.3 622.603 146.55 623.836 148.15C625.103 149.75 626.069 151.65 626.736 153.85C627.403 156.017 627.736 158.367 627.736 160.9C627.736 163.433 627.403 165.8 626.736 168C626.069 170.167 625.103 172.05 623.836 173.65C622.603 175.25 621.103 176.517 619.336 177.45C617.569 178.35 615.586 178.8 613.386 178.8ZM613.386 172.6C614.586 172.6 615.669 172.317 616.636 171.75C617.603 171.15 618.419 170.333 619.086 169.3C619.786 168.233 620.303 166.983 620.636 165.55C621.003 164.117 621.186 162.567 621.186 160.9C621.186 159.2 621.003 157.65 620.636 156.25C620.303 154.817 619.786 153.583 619.086 152.55C618.419 151.483 617.603 150.667 616.636 150.1C615.669 149.5 614.586 149.2 613.386 149.2C612.153 149.2 611.053 149.5 610.086 150.1C609.119 150.667 608.303 151.483 607.636 152.55C606.969 153.583 606.453 154.817 606.086 156.25C605.753 157.65 605.586 159.2 605.586 160.9C605.586 162.567 605.753 164.117 606.086 165.55C606.453 166.983 606.969 168.233 607.636 169.3C608.303 170.333 609.119 171.15 610.086 171.75C611.053 172.317 612.153 172.6 613.386 172.6ZM629.753 178V172.05C631.72 170.117 633.536 168.317 635.203 166.65C635.903 165.95 636.62 165.233 637.353 164.5C638.086 163.767 638.77 163.083 639.403 162.45C640.036 161.817 640.603 161.25 641.103 160.75C641.603 160.217 641.986 159.8 642.253 159.5C642.786 158.867 643.253 158.3 643.653 157.8C644.086 157.3 644.42 156.817 644.653 156.35C644.92 155.85 645.12 155.367 645.253 154.9C645.386 154.4 645.453 153.867 645.453 153.3C645.453 152.2 645.02 151.25 644.153 150.45C643.286 149.617 642.103 149.2 640.603 149.2C639.103 149.2 637.936 149.633 637.103 150.5C636.27 151.333 635.703 152.283 635.403 153.35L629.453 150.9C629.72 150 630.153 149.083 630.753 148.15C631.353 147.183 632.12 146.333 633.053 145.6C633.986 144.833 635.086 144.217 636.353 143.75C637.653 143.25 639.103 143 640.703 143C642.436 143 644.003 143.267 645.403 143.8C646.803 144.3 647.986 145 648.953 145.9C649.92 146.8 650.67 147.867 651.203 149.1C651.736 150.3 652.003 151.6 652.003 153C652.003 155.133 651.47 157.1 650.403 158.9C649.37 160.667 648.103 162.317 646.603 163.85L642.303 168.15C641.17 169.283 639.886 170.55 638.453 171.95L638.653 172.25H652.503V178H629.753ZM670.499 178V171.7H654.699V166.4L669.899 143.8H676.999V165.6H681.299V171.7H676.999V178H670.499ZM670.499 153.55H670.099L661.949 165.6H670.499V153.55Z" fill="#2B82FB"/>
</svg>
