<svg width="320" height="80" viewBox="0 0 320 80" fill="none" xmlns="http://www.w3.org/2000/svg">
<path fill-rule="evenodd" clip-rule="evenodd" d="M76.25 0H3.75C2.75544 0 1.80161 0.395088 1.09835 1.09835C0.395088 1.80161 0 2.75544 0 3.75L0 76.25C0 77.2446 0.395088 78.1984 1.09835 78.9016C1.80161 79.6049 2.75544 80 3.75 80H76.25C77.2446 80 78.1984 79.6049 78.9016 78.9016C79.6049 78.1984 80 77.2446 80 76.25V3.75C80 2.75544 79.6049 1.80161 78.9016 1.09835C78.1984 0.395088 77.2446 0 76.25 0ZM72.5 72.5H7.5V7.5H72.5V72.5Z" fill="#141B2C"/>
<path d="M57.5 65C61.6421 65 65 61.6421 65 57.5C65 53.3579 61.6421 50 57.5 50C53.3579 50 50 53.3579 50 57.5C50 61.6421 53.3579 65 57.5 65Z" fill="#141B2C"/>
<path fill-rule="evenodd" clip-rule="evenodd" d="M30.0001 15.8871V19.0858C29.9992 19.2223 29.9672 19.3568 29.9065 19.4791C29.8459 19.6014 29.7582 19.7083 29.6501 19.7917C27.8028 21.2158 26.0608 22.7713 24.4376 24.446C22.7625 26.0689 21.2064 27.8102 19.7813 29.6563C19.6995 29.7642 19.5936 29.8514 19.4721 29.9111C19.3505 29.9707 19.2167 30.0012 19.0813 29.9999H15.8813C15.6476 29.9999 15.4235 29.9071 15.2582 29.7419C15.0929 29.5767 15.0001 29.3527 15.0001 29.1191V15.8871C14.9984 15.7707 15.02 15.6551 15.0636 15.5471C15.1073 15.4392 15.172 15.341 15.2541 15.2583C15.3362 15.1757 15.4339 15.1103 15.5417 15.0659C15.6494 15.0216 15.7648 14.9992 15.8813 15H29.1188C29.2351 15 29.3502 15.023 29.4575 15.0677C29.5649 15.1123 29.6623 15.1778 29.7442 15.2602C29.8261 15.3427 29.8909 15.4405 29.9348 15.5481C29.9787 15.6557 30.0009 15.7709 30.0001 15.8871Z" fill="#141B2C"/>
<path d="M65.0001 15.975V29.0063C64.9985 29.2672 64.895 29.5171 64.7117 29.7028C64.5283 29.8885 64.2797 29.9951 64.0188 30C56.0188 30.3188 47.6626 34.8125 41.2376 41.25C34.8126 47.6875 30.3126 56.0188 30.0001 64.025C29.992 64.2853 29.8833 64.5324 29.6968 64.7142C29.5103 64.8961 29.2605 64.9985 29.0001 65H15.9688C15.8408 65.0008 15.714 64.9762 15.5957 64.9274C15.4773 64.8786 15.3699 64.8067 15.2797 64.7159C15.1895 64.6251 15.1183 64.5173 15.0703 64.3986C15.0223 64.28 14.9984 64.153 15.0001 64.025C15.3188 51.875 21.4813 39.7563 30.6251 30.625C39.7688 21.4938 51.8751 15.325 64.0251 15C64.1538 14.9975 64.2817 15.0209 64.4012 15.069C64.5206 15.1171 64.6291 15.1888 64.7202 15.2799C64.8112 15.3709 64.883 15.4794 64.9311 15.5989C64.9792 15.7183 65.0026 15.8463 65.0001 15.975Z" fill="#141B2C"/>
<path d="M195 52.5H320V60H195V52.5Z" fill="#141B2C"/>
<path d="M110 52.5H147.5V60H110V52.5Z" fill="#141B2C"/>
<path d="M320 37.5374C319.819 25.3129 301.65 29.0171 301.65 23.795C301.65 22.2084 302.969 21.2964 305.4 21.2964C308.288 21.2964 310.031 22.7643 310.331 24.9943H319.837C319.156 18.5042 314.375 13.8005 305.681 13.8005C296.894 13.8005 292.019 18.3855 292.019 23.9699C292.019 36.0132 310.312 32.1966 310.312 37.4811C310.312 38.9491 308.931 40.1297 306.281 40.1297C303.45 40.1297 301.35 38.5993 301.106 36.3068H290.938C291.419 42.6533 297.437 47.5505 306.4 47.5505C314.825 47.5318 320 43.2404 320 37.5374Z" fill="#141B2C"/>
<path d="M261.562 18.1812V0.15625H251.25V47.5H261.562V42.111C262.654 43.8316 264.172 45.2448 265.969 46.2156C267.767 47.1863 269.786 47.682 271.831 47.6552C280.05 47.6552 286.875 40.4763 286.875 29.9845C286.875 19.4927 280.112 12.9913 271.831 12.9913C267.031 12.9913 263.425 15.1978 261.562 18.1812ZM276.15 30.0591C276.15 35.3671 272.669 38.3506 268.769 38.3506C264.869 38.3506 261.45 35.4293 261.45 30.115C261.45 24.8008 264.931 21.5936 268.75 21.5936C272.569 21.5936 276.15 24.7448 276.15 30.0591Z" fill="#141B2C"/>
<path d="M209.375 30.5833C209.375 41.1272 215.912 47.6529 224.075 47.6529C229.075 47.6529 232.825 45.5568 234.7 42.6245V47.5H245V13.75H234.688V18.6669C232.887 15.7346 229.112 13.4574 224.137 13.4574C215.912 13.4574 209.375 20.0395 209.375 30.5833ZM234.456 30.6457C234.456 35.9738 231.038 38.9123 227.138 38.9123C223.238 38.9123 219.813 35.9176 219.813 30.5833C219.813 25.249 223.294 22.0859 227.138 22.0859C230.981 22.0859 234.456 25.3177 234.456 30.6457Z" fill="#141B2C"/>
<path d="M195 47.5H205V0H195V47.5Z" fill="#141B2C"/>
<path d="M152.5 28.8305C152.5 39.4146 158.982 45.1233 167.134 45.1233C172.01 45.1233 175.748 42.7734 177.592 39.8282V43.3186C177.592 48.9584 174.329 51.0201 170.466 51.0201C166.953 51.0201 164.308 49.3658 163.652 46.8404H153.431C154.319 54.8427 161.064 60 170.935 60C182.412 60 187.5 53.5455 187.5 44.5782V13.5966H177.592V17.7325C175.81 14.7246 172.01 12.5 167.134 12.5C158.982 12.5 152.5 18.2401 152.5 28.8305ZM177.361 29.9522C177.361 35.3038 173.973 38.3493 170.103 38.3493C166.234 38.3493 162.852 35.216 162.852 29.8895C162.852 24.563 166.296 21.4611 170.103 21.4611C173.91 21.4611 177.361 24.5943 177.361 29.9522Z" fill="#141B2C"/>
<path d="M147.5 4.99116C147.5 6.3149 146.973 7.58442 146.036 8.52045C145.098 9.45647 143.826 9.98232 142.5 9.98232C141.174 9.98232 139.902 9.45647 138.964 8.52045C138.027 7.58442 137.5 6.3149 137.5 4.99116C137.5 3.66742 138.027 2.3979 138.964 1.46188C139.902 0.525853 141.174 0 142.5 0C143.826 0 145.098 0.525853 146.036 1.46188C146.973 2.3979 147.5 3.66742 147.5 4.99116Z" fill="#141B2C"/>
<path d="M137.5 47.5H147.5V13.75H137.5V47.5Z" fill="#141B2C"/>
<path d="M120.303 32.05C120.303 26.2875 123.523 24.6125 128.455 24.6125H131.25V13.75C126.614 13.75 123.033 16.15 120.625 19.6875V13.75H110V47.5H120.303V32.05Z" fill="#141B2C"/>
<path d="M152.175 75H154.013L154.6 72.2125H156.638C158.763 72.2125 160.488 70.75 160.488 68.85C160.488 67.4 159.388 66.4125 157.75 66.4125H153.963L152.175 75ZM154.95 70.525L155.463 68.1H157.375C158.138 68.1 158.625 68.45 158.625 68.975C158.625 69.775 157.75 70.525 156.788 70.525H154.95ZM164.102 75.15C166.239 75.15 168.277 73.375 168.277 71.2375C168.277 69.6625 167.002 68.3875 165.327 68.3875C163.189 68.3875 161.164 70.15 161.164 72.3C161.164 73.875 162.427 75.15 164.102 75.15ZM164.239 73.6125C163.477 73.6125 162.877 73.0125 162.877 72.25C162.877 71.05 163.977 69.925 165.189 69.925C165.964 69.925 166.564 70.525 166.564 71.2875C166.564 72.475 165.452 73.6125 164.239 73.6125ZM170.619 75H172.257L174.332 70.9375L174.669 75H176.307L179.857 68.5375H178.019L175.957 72.5625L175.532 68.5375H174.019L171.894 72.5625L171.519 68.5375H169.769L170.619 75ZM183.237 72.3625C185.212 72.4125 186.387 71.5875 186.387 70.15C186.387 69.1125 185.374 68.3875 183.949 68.3875C181.799 68.3875 179.974 70.2 179.974 72.4375C179.974 74.05 181.087 75.15 182.812 75.15C183.874 75.15 184.912 74.8 185.599 74.2L184.599 72.9C184.112 73.3 183.462 73.5375 182.849 73.5375C182.074 73.5375 181.674 73.1875 181.674 72.425V72.3625H183.237ZM183.874 69.9875C184.299 69.9875 184.599 70.2 184.599 70.4875C184.599 70.8375 184.187 71.05 183.474 71.05H182.024C182.399 70.4 183.049 69.9875 183.874 69.9875ZM190.193 69.65L190.418 68.5375H188.593L187.243 75H189.068L189.73 71.8375C190.03 70.7125 191.093 69.925 192.393 69.925L192.593 68.3875C191.618 68.3875 190.755 68.8625 190.193 69.65ZM196.688 72.3625C198.663 72.4125 199.838 71.5875 199.838 70.15C199.838 69.1125 198.825 68.3875 197.4 68.3875C195.25 68.3875 193.425 70.2 193.425 72.4375C193.425 74.05 194.538 75.15 196.263 75.15C197.325 75.15 198.363 74.8 199.05 74.2L198.05 72.9C197.563 73.3 196.913 73.5375 196.3 73.5375C195.525 73.5375 195.125 73.1875 195.125 72.425V72.3625H196.688ZM197.325 69.9875C197.75 69.9875 198.05 70.2 198.05 70.4875C198.05 70.8375 197.638 71.05 196.925 71.05H195.475C195.85 70.4 196.5 69.9875 197.325 69.9875ZM207.356 66.2625L206.669 69.575C206.281 68.85 205.556 68.3875 204.669 68.3875C202.594 68.3875 200.994 70.35 200.994 72.525C200.994 74.0375 202.006 75.15 203.444 75.15C204.319 75.15 205.106 74.775 205.719 74.1625L205.544 75H207.369L209.181 66.2625H207.356ZM204.044 73.6125C203.294 73.6125 202.769 73.075 202.769 72.35C202.769 71.05 203.781 69.925 204.994 69.925C205.744 69.925 206.294 70.45 206.294 71.175C206.294 71.275 206.281 71.3875 206.269 71.4875L206.206 71.825C205.919 72.8125 205.056 73.6125 204.044 73.6125ZM218.736 68.3875C217.861 68.3875 217.074 68.7625 216.461 69.375L217.111 66.2625H215.286L213.474 75H215.299L215.511 73.9625C215.899 74.6875 216.624 75.15 217.511 75.15C219.586 75.15 221.186 73.1875 221.186 71C221.186 69.5 220.174 68.3875 218.736 68.3875ZM217.186 73.6125C216.436 73.6125 215.886 73.0875 215.886 72.3625C215.886 72.275 215.886 72.1875 215.899 72.0875L215.986 71.6625C216.286 70.7 217.149 69.925 218.149 69.925C218.886 69.925 219.411 70.4625 219.411 71.1875C219.411 72.4625 218.399 73.6125 217.186 73.6125ZM223.313 77.25C224.288 77.25 225.213 76.6625 225.963 75.3875L230.038 68.5375H228.138L225.563 73.075L224.825 68.5375H222.975L224.288 75.0625L223.938 75.4625C223.763 75.7125 223.375 75.8875 223.038 75.8875C222.825 75.8875 222.538 75.8 222.275 75.6375L221.738 76.8125C222.138 77.0625 222.763 77.25 223.313 77.25Z" fill="#141B2C"/>
<path d="M237.82 78.5H249.74V75.04H243.16L249.64 67.66V64.76H237.96V68.22H244.32L237.8 75.6L237.82 78.5ZM251.576 78.5H255.456V64.76H251.576V78.5ZM261.602 75.04V64.76H257.722V78.5H268.002V75.04H261.602ZM269.535 78.5H273.415V64.76H269.535V78.5ZM282.641 78.74C284.841 78.74 286.841 77.8 288.221 76.3L285.381 73.82C284.721 74.66 283.741 75.22 282.641 75.22C280.761 75.22 279.161 73.58 279.161 71.62C279.161 69.68 280.761 68.04 282.641 68.04C283.721 68.04 284.721 68.6 285.361 69.44L288.221 66.94C286.841 65.46 284.841 64.52 282.641 64.52C278.581 64.52 275.161 67.76 275.161 71.62C275.161 75.48 278.581 78.74 282.641 78.74ZM296.269 78.74C300.329 78.74 303.749 75.48 303.749 71.62C303.749 67.76 300.329 64.52 296.269 64.52C292.209 64.52 288.789 67.76 288.789 71.62C288.789 75.48 292.209 78.74 296.269 78.74ZM296.269 75.22C294.389 75.22 292.789 73.58 292.789 71.62C292.789 69.68 294.389 68.04 296.269 68.04C298.149 68.04 299.749 69.68 299.749 71.62C299.749 73.58 298.149 75.22 296.269 75.22ZM305.418 78.5H309.298V71.14L314.658 78.5H318.538V64.76H314.658V72.12L309.298 64.76H305.418V78.5Z" fill="#141B2C"/>
</svg>
